<?xml version="1.0" standalone="no"?>
<!DOCTYPE svg PUBLIC "-//W3C//DTD SVG 20010904//EN"
 "http://www.w3.org/TR/2001/REC-SVG-20010904/DTD/svg10.dtd">
<svg version="1.0" xmlns="http://www.w3.org/2000/svg"
 width="64.000000pt" height="64.000000pt" viewBox="0 0 64.000000 64.000000"
 preserveAspectRatio="xMidYMid meet">

<g transform="translate(0.000000,64.000000) scale(0.100000,-0.100000)"
fill="#000000" stroke="none">
<path d="M63 548 c-10 -13 -28 -28 -38 -34 -28 -16 -31 -73 -6 -130 16 -34 21
-68 21 -125 0 -46 4 -79 10 -79 6 0 10 13 10 28 l0 28 280 3 280 2 0 -56 c0
-101 17 -95 -281 -95 l-261 0 -11 30 c-6 17 -15 30 -19 30 -16 0 -8 -40 12
-60 19 -19 33 -20 280 -20 247 0 261 1 280 20 18 18 20 33 20 170 0 182 -4
190 -100 190 -33 0 -60 -4 -60 -10 0 -6 27 -10 60 -10 48 0 61 -4 70 -19 26
-49 21 -51 -140 -51 -82 0 -150 2 -150 4 0 1 5 17 11 35 10 30 13 31 65 31 30
0 54 5 54 10 0 6 -25 10 -55 10 -50 0 -55 2 -55 22 0 13 -17 37 -42 60 -42 38
-42 38 -129 38 -79 0 -89 -2 -106 -22z m222 -33 c41 -40 45 -76 16 -133 -24
-47 -104 -122 -129 -122 -29 0 -112 79 -133 125 -28 60 -24 91 13 129 32 32
36 33 116 35 82 1 83 1 117 -34z m335 -215 l0 -40 -186 0 -187 0 39 40 39 40
148 0 147 0 0 -40z m-540 -25 c10 -12 10 -15 -4 -15 -9 0 -16 7 -16 15 0 8 2
15 4 15 2 0 9 -7 16 -15z"/>
<path d="M94 505 c-3 -8 -14 -17 -25 -20 -23 -8 -25 -42 -6 -88 14 -32 88
-107 107 -107 5 0 28 17 51 37 74 67 89 127 42 168 -24 21 -39 24 -96 25 -50
0 -69 -4 -73 -15z m155 -29 c31 -33 22 -65 -34 -125 l-45 -46 -45 46 c-56 60
-65 92 -34 125 19 20 32 24 79 24 47 0 60 -4 79 -24z"/>
<path d="M128 444 c-8 -8 29 -64 42 -64 13 0 53 60 45 68 -3 4 -15 -4 -25 -18
l-18 -24 -19 23 c-10 12 -21 19 -25 15z"/>
<path d="M157 203 c-13 -12 -7 -25 8 -20 8 4 17 2 20 -4 9 -14 25 -1 18 16 -5
15 -34 20 -46 8z"/>
<path d="M317 204 c-4 -4 -7 -14 -7 -23 0 -11 3 -12 11 -4 6 6 18 9 27 6 10
-4 13 -1 10 8 -5 16 -30 23 -41 13z"/>
<path d="M459 189 c-18 -18 -19 -23 -6 -42 25 -39 120 -35 133 5 15 50 -85 79
-127 37z m98 -10 c21 -21 3 -39 -37 -39 -41 0 -55 11 -46 35 6 18 67 20 83 4z"/>
<path d="M222 174 c5 -40 33 -54 58 -28 29 29 17 54 -27 54 -31 0 -34 -2 -31
-26z"/>
</g>
</svg>
