<svg version="1.1" id="Layer_1" xmlns="http://www.w3.org/2000/svg" xmlns:xlink="http://www.w3.org/1999/xlink" x="0px" y="0px"
	 width="100%" viewBox="0 0 512 512" enable-background="new 0 0 512 512" xml:space="preserve">
<path fill="#FFCF35" opacity="1.000000" stroke="none" 
	d="
M1.000001,279.000000 
	C1.000000,264.645782 1.000000,250.291550 1.361033,235.247070 
	C2.481565,227.863617 2.990970,221.130707 4.045301,214.484253 
	C7.918094,190.070282 15.367043,166.721664 26.238012,144.558914 
	C36.033531,124.588715 47.652073,105.661339 63.118759,89.529510 
	C74.661179,77.490700 86.254745,65.306946 99.133598,54.789486 
	C117.860222,39.496471 138.902390,27.672777 161.514343,18.774414 
	C181.257706,11.004918 201.533722,5.466248 222.625656,2.964181 
	C226.769791,2.472575 230.876190,1.662953 235.000000,1.000000 
	C249.354233,1.000000 263.708466,1.000000 278.752930,1.361036 
	C290.775787,3.466648 302.170288,4.885315 313.428680,7.021312 
	C339.630280,11.992414 363.954102,22.140631 386.845154,35.543694 
	C411.501251,49.980198 432.920807,68.390770 451.664703,90.032532 
	C464.317505,104.641464 475.031281,120.476654 484.106506,137.458099 
	C492.866394,153.849457 499.967834,170.996033 504.363220,189.039963 
	C507.566193,202.188690 509.393921,215.672394 511.566315,228.824097 
	C509.859711,227.256683 508.398285,225.895172 506.986725,224.483780 
	C440.947296,158.452118 374.913452,92.414902 308.868652,26.388643 
	C307.343018,24.863426 305.698700,23.456924 303.812134,21.682964 
	C296.742310,21.292429 289.969330,21.109886 283.198120,21.161526 
	C274.463959,21.228138 265.731171,21.482143 256.532562,21.590960 
	C240.871338,21.526472 225.675339,21.526472 210.061172,21.526472 
	C210.061172,39.779392 210.061172,57.343323 210.151428,75.231094 
	C220.237808,85.395943 230.233917,95.236938 240.326477,105.528107 
	C240.496033,131.581421 240.569122,157.184570 240.200455,182.855957 
	C231.946213,182.948593 224.133759,182.976471 216.321259,182.996719 
	C200.602310,183.037460 192.039810,191.619156 191.995850,207.363892 
	C191.948517,224.316849 191.888657,241.269775 191.563812,258.381836 
	C187.901810,261.740662 184.442993,264.872437 181.129669,268.151215 
	C160.766174,288.302490 140.385651,308.436981 120.109039,328.675507 
	C102.428307,346.322998 84.877007,364.100220 66.785561,381.872620 
	C55.262192,382.018188 44.221779,382.111206 33.046677,381.860046 
	C28.261417,371.958740 23.169048,362.587494 19.053282,352.805389 
	C10.773825,333.127289 5.443530,312.601685 2.962706,291.359100 
	C2.479255,287.219452 1.662840,283.118683 1.000001,279.000000 
z"/>
<path fill="#FFB344" opacity="1.000000" stroke="none" 
	d="
M304.109741,21.995049 
	C305.698700,23.456924 307.343018,24.863426 308.868652,26.388643 
	C374.913452,92.414902 440.947296,158.452118 506.986725,224.483780 
	C508.398285,225.895172 509.859711,227.256683 511.630035,229.224945 
	C512.308105,231.538956 512.654053,233.269470 513.000000,235.000000 
	C513.000000,249.354233 513.000000,263.708466 512.641479,278.755951 
	C511.810852,285.030792 511.850525,290.714600 510.760223,296.172668 
	C508.490326,307.535431 506.033081,318.893921 502.907196,330.045135 
	C497.762177,348.399628 490.404022,365.901031 480.366699,382.312317 
	C468.936676,382.087219 457.952179,381.969757 446.803955,381.573212 
	C445.261536,379.851135 443.910614,378.380219 442.499908,376.969147 
	C407.898926,342.357483 373.319733,307.723938 338.655548,273.175659 
	C333.365082,267.902893 327.676300,263.029785 322.098053,257.511108 
	C322.016418,239.622238 322.034851,222.194046 321.991669,204.765976 
	C321.960785,192.316833 312.794098,183.067993 300.450317,183.009003 
	C291.653473,182.966965 282.856232,183.011353 273.957977,182.556961 
	C273.878204,146.715942 273.899658,111.335136 274.392975,75.919075 
	C284.440552,75.883820 294.016235,75.883820 304.109741,75.883820 
	C304.109741,57.470676 304.109741,39.732861 304.109741,21.995049 
z"/>
<path fill="#FF6938" opacity="1.000000" stroke="none" 
	d="
M33.181366,382.204254 
	C44.221779,382.111206 55.262192,382.018188 67.230576,381.927429 
	C93.484932,381.953064 118.811302,381.974152 144.137680,382.000183 
	C181.793335,382.038910 219.448990,382.081116 257.105103,382.582764 
	C257.070374,426.362488 257.035187,469.681244 257.000000,513.000000 
	C249.979050,513.000000 242.958099,513.000000 235.268219,512.623047 
	C223.073380,510.484802 211.458054,509.168304 200.039642,506.872528 
	C173.914062,501.619781 149.577927,491.522217 126.676033,478.030273 
	C102.152855,463.583099 80.816711,445.305786 62.222878,423.740875 
	C51.118221,410.861816 41.409420,397.065399 33.181366,382.204254 
z"/>
<path fill="#AF4F32" opacity="1.000000" stroke="none" 
	d="
M257.468536,513.000000 
	C257.035187,469.681244 257.070374,426.362488 257.073242,382.542480 
	C257.040894,382.041199 256.993286,381.950165 257.460663,381.982513 
	C299.993805,382.009003 342.059570,382.017639 384.125336,381.991211 
	C405.072815,381.978027 426.020203,381.900604 446.967651,381.852264 
	C457.952179,381.969757 468.936676,382.087219 480.186646,382.564392 
	C465.774170,408.876556 447.021820,431.426239 424.509491,450.993561 
	C402.953552,469.729553 379.016083,484.390137 352.538025,495.012268 
	C332.648224,502.991455 312.148712,508.529663 290.835632,511.005371 
	C286.537842,511.504639 282.277557,512.326721 278.000000,513.000000 
	C271.312347,513.000000 264.624725,513.000000 257.468536,513.000000 
z"/>
<path fill="#FFFFFF" opacity="1.000000" stroke="none" 
	d="
M234.531342,1.000000 
	C230.876190,1.662953 226.769791,2.472575 222.625656,2.964181 
	C201.533722,5.466248 181.257706,11.004918 161.514343,18.774414 
	C138.902390,27.672777 117.860222,39.496471 99.133598,54.789486 
	C86.254745,65.306946 74.661179,77.490700 63.118759,89.529510 
	C47.652073,105.661339 36.033531,124.588715 26.238012,144.558914 
	C15.367043,166.721664 7.918094,190.070282 4.045301,214.484253 
	C2.990970,221.130707 2.481565,227.863617 1.361033,234.778412 
	C1.000000,157.072952 1.000000,79.145912 1.000000,1.000000 
	C78.687424,1.000000 156.375061,1.000000 234.531342,1.000000 
z"/>
<path fill="#FFFFFF" opacity="1.000000" stroke="none" 
	d="
M278.468658,513.000000 
	C282.277557,512.326721 286.537842,511.504639 290.835632,511.005371 
	C312.148712,508.529663 332.648224,502.991455 352.538025,495.012268 
	C379.016083,484.390137 402.953552,469.729553 424.509491,450.993561 
	C447.021820,431.426239 465.774170,408.876556 480.632111,382.671997 
	C490.404022,365.901031 497.762177,348.399628 502.907196,330.045135 
	C506.033081,318.893921 508.490326,307.535431 510.760223,296.172668 
	C511.850525,290.714600 511.810852,285.030792 512.641479,279.224609 
	C513.000000,356.927185 513.000000,434.854370 513.000000,513.000000 
	C434.979248,513.000000 356.958282,513.000000 278.468658,513.000000 
z"/>
<path fill="#FFFFFF" opacity="1.000000" stroke="none" 
	d="
M33.046677,381.860046 
	C41.409420,397.065399 51.118221,410.861816 62.222878,423.740875 
	C80.816711,445.305786 102.152855,463.583099 126.676033,478.030273 
	C149.577927,491.522217 173.914062,501.619781 200.039642,506.872528 
	C211.458054,509.168304 223.073380,510.484802 234.799637,512.623047 
	C157.072968,513.000000 79.145927,513.000000 1.000000,513.000000 
	C1.000000,435.312561 1.000000,357.624939 1.000001,279.468658 
	C1.662840,283.118683 2.479255,287.219452 2.962706,291.359100 
	C5.443530,312.601685 10.773825,333.127289 19.053282,352.805389 
	C23.169048,362.587494 28.261417,371.958740 33.046677,381.860046 
z"/>
<path fill="#FFFFFF" opacity="1.000000" stroke="none" 
	d="
M513.000000,234.531342 
	C512.654053,233.269470 512.308105,231.538956 511.898468,229.407593 
	C509.393921,215.672394 507.566193,202.188690 504.363220,189.039963 
	C499.967834,170.996033 492.866394,153.849457 484.106506,137.458099 
	C475.031281,120.476654 464.317505,104.641464 451.664703,90.032532 
	C432.920807,68.390770 411.501251,49.980198 386.845154,35.543694 
	C363.954102,22.140631 339.630280,11.992414 313.428680,7.021312 
	C302.170288,4.885315 290.775787,3.466648 279.221558,1.361036 
	C356.927032,1.000000 434.854095,1.000000 513.000000,1.000000 
	C513.000000,78.687424 513.000000,156.375061 513.000000,234.531342 
z"/>
<path fill="#FFECB3" opacity="1.000000" stroke="none" 
	d="
M257.072754,382.081512 
	C219.448990,382.081116 181.793335,382.038910 144.137680,382.000183 
	C118.811302,381.974152 93.484932,381.953064 67.713531,381.874939 
	C84.877007,364.100220 102.428307,346.322998 120.109039,328.675507 
	C140.385651,308.436981 160.766174,288.302490 181.129669,268.151215 
	C184.442993,264.872437 187.901810,261.740662 191.634201,258.824402 
	C191.975021,272.984253 191.975021,286.860657 191.975021,300.924835 
	C213.975204,292.953369 235.437271,285.176910 256.944000,277.908691 
	C256.990204,312.928009 256.991760,347.439087 256.993286,381.950165 
	C256.993286,381.950165 257.040894,382.041199 257.072754,382.081512 
z"/>
<path fill="#047BDB" opacity="1.000000" stroke="none" 
	d="
M256.899323,277.400421 
	C235.437271,285.176910 213.975204,292.953369 191.975021,300.924835 
	C191.975021,286.860657 191.975021,272.984253 191.904633,258.665283 
	C191.888657,241.269775 191.948517,224.316849 191.995850,207.363892 
	C192.039810,191.619156 200.602310,183.037460 216.321259,182.996719 
	C224.133759,182.976471 231.946213,182.948593 240.268890,183.328033 
	C240.819778,200.727005 240.910614,217.722229 240.874756,234.717178 
	C240.861664,240.924530 243.125290,245.826035 248.663467,248.742737 
	C250.758835,249.846268 253.310654,250.083023 255.654419,250.714874 
	C256.127045,248.569199 257.008820,246.424225 257.012573,244.277725 
	C257.111023,188.124313 257.118408,131.970749 257.597656,75.833466 
	C263.342957,75.884598 268.632050,75.919464 273.921112,75.954330 
	C273.899658,111.335136 273.878204,146.715942 273.942444,183.023010 
	C274.021393,200.255081 274.047302,216.560989 273.995667,232.866623 
	C273.965210,242.477982 269.715179,247.999023 260.836945,251.197174 
	C259.207733,251.784027 257.289062,254.257751 257.197449,255.952087 
	C256.820831,262.916779 257.097961,269.916840 257.078735,277.029419 
	C257.022827,277.154938 256.899323,277.400421 256.899323,277.400421 
z"/>
<path fill="#21BCED" opacity="1.000000" stroke="none" 
	d="
M257.141449,75.817200 
	C257.118408,131.970749 257.111023,188.124313 257.012573,244.277725 
	C257.008820,246.424225 256.127045,248.569199 255.654419,250.714874 
	C253.310654,250.083023 250.758835,249.846268 248.663467,248.742737 
	C243.125290,245.826035 240.861664,240.924530 240.874756,234.717178 
	C240.910614,217.722229 240.819778,200.727005 240.710663,183.259796 
	C240.569122,157.184570 240.496033,131.581421 240.475586,105.142548 
	C240.560623,94.823120 240.593002,85.339417 241.114746,75.815331 
	C246.793869,75.714470 251.983612,75.653992 257.157837,75.648354 
	C257.142303,75.703201 257.141449,75.817200 257.141449,75.817200 
z"/>
<path fill="#1B5292" opacity="1.000000" stroke="none" 
	d="
M274.392975,75.919075 
	C268.632050,75.919464 263.342957,75.884598 257.597656,75.833466 
	C257.141449,75.817200 257.142303,75.703201 257.118439,75.214859 
	C257.059509,67.325630 257.024475,59.924751 257.440216,52.385109 
	C265.453094,52.246346 273.015167,52.246346 280.510376,52.246346 
	C280.510376,49.298634 280.510376,47.363365 280.510376,44.476170 
	C272.502380,44.476170 264.745880,44.476170 256.993896,44.040398 
	C256.998230,36.288235 256.998016,28.971840 256.997803,21.655447 
	C265.731171,21.482143 274.463959,21.228138 283.198120,21.161526 
	C289.969330,21.109886 296.742310,21.292429 303.812134,21.682961 
	C304.109741,39.732861 304.109741,57.470676 304.109741,75.883820 
	C294.016235,75.883820 284.440552,75.883820 274.392975,75.919075 
z"/>
<path fill="#0E53B5" opacity="1.000000" stroke="none" 
	d="
M256.989410,52.523872 
	C257.024475,59.924751 257.059509,67.325630 257.133972,75.160004 
	C251.983612,75.653992 246.793869,75.714470 240.754929,75.697075 
	C229.957550,75.381882 220.009369,75.144569 210.061172,74.907249 
	C210.061172,57.343323 210.061172,39.779392 210.061172,21.526472 
	C225.675339,21.526472 240.871338,21.526472 256.532562,21.590960 
	C256.998016,28.971840 256.998230,36.288235 256.526184,44.051338 
	C248.512711,44.498051 240.971481,44.498051 233.406799,44.498051 
	C233.406799,47.563686 233.406799,49.795822 233.406799,52.523872 
	C241.472855,52.523872 249.231125,52.523872 256.989410,52.523872 
z"/>
<path fill="#E4B356" opacity="1.000000" stroke="none" 
	d="
M210.151428,75.231094 
	C220.009369,75.144569 229.957550,75.381882 240.265564,75.737457 
	C240.593002,85.339417 240.560623,94.823120 240.379135,104.692383 
	C230.233917,95.236938 220.237808,85.395943 210.151428,75.231094 
z"/>
<path fill="#FFD863" opacity="1.000000" stroke="none" 
	d="
M256.944000,277.908691 
	C256.899323,277.400421 257.022827,277.154938 257.442749,277.006042 
	C278.647034,270.212646 299.791626,265.769287 322.171753,267.098816 
	C322.171753,263.591370 322.171753,260.781586 322.171753,257.971802 
	C327.676300,263.029785 333.365082,267.902893 338.655548,273.175659 
	C373.319733,307.723938 407.898926,342.357483 442.499908,376.969147 
	C443.910614,378.380219 445.261536,379.851135 446.803955,381.573212 
	C426.020203,381.900604 405.072815,381.978027 384.125336,381.991211 
	C342.059570,382.017639 299.993805,382.009003 257.460663,381.982513 
	C256.991760,347.439087 256.990204,312.928009 256.944000,277.908691 
z"/>
<path fill="#035EC3" opacity="1.000000" stroke="none" 
	d="
M322.098053,257.511108 
	C322.171753,260.781586 322.171753,263.591370 322.171753,267.098816 
	C299.791626,265.769287 278.647034,270.212646 257.498657,276.880493 
	C257.097961,269.916840 256.820831,262.916779 257.197449,255.952087 
	C257.289062,254.257751 259.207733,251.784027 260.836945,251.197174 
	C269.715179,247.999023 273.965210,242.477982 273.995667,232.866623 
	C274.047302,216.560989 274.021393,200.255081 274.043640,183.483246 
	C282.856232,183.011353 291.653473,182.966965 300.450317,183.009003 
	C312.794098,183.067993 321.960785,192.316833 321.991669,204.765976 
	C322.034851,222.194046 322.016418,239.622238 322.098053,257.511108 
z"/>
<path fill="#FDB245" opacity="1.000000" stroke="none" 
	d="
M257.440216,52.385109 
	C249.231125,52.523872 241.472855,52.523872 233.406799,52.523872 
	C233.406799,49.795822 233.406799,47.563686 233.406799,44.498051 
	C240.971481,44.498051 248.512711,44.498051 256.521667,44.487110 
	C264.745880,44.476170 272.502380,44.476170 280.510376,44.476170 
	C280.510376,47.363365 280.510376,49.298634 280.510376,52.246346 
	C273.015167,52.246346 265.453094,52.246346 257.440216,52.385109 
z"/>
</svg>